# xmcd
#
# Track frame offsets:
#	150
#	20557
#	42537
#	59557
#	83545
#	105877
#	120715
#	139990
#	151767
#	162247
#	177272
#	191280
#	201607
#	212475
#	223320
#	237320
#	248020
#	258537
#	268417
#	281307
#
# Disc length: 4058 seconds
#
# Revision: 1
# Processed by: cddbd v1.5.1PL0 Copyright (c) Steve Scherf et al.
# Submitted via: CDex 1.50Beta5
#
DISCID=280fd814
DTITLE=Various Artist - NHK みんなのうた [CD2]
DYEAR=2003
DGENRE=Music
TTITLE0=坂田おさむ/ママの結婚
TTITLE1=直太郎/高校３年生
TTITLE2=児玉国弘、児玉章/ベスト・フレンド〜Best Friend〜
TTITLE3=ビリー・バンバン/よかったね　笑えて
TTITLE4=ダ・カーポ/よこはま詩集
TTITLE5=みなみらんぼう＆市毛良枝/山遊歌
TTITLE6=BELL&ACCORDIONS/潮騒のうた
TTITLE7=今野久美/キャベツUfo
TTITLE8=山野さと子/バナナ村に雨がふる
TTITLE9=堀江美都子/さとうきび畑
TTITLE10=やまがたすみこ/赤い花　白い花
TTITLE11=蒲原史子/小さな木の実
TTITLE12=東京放送児童合唱団/川はだれのもの？
TTITLE13=さとまさのり、ピープル/赤鬼と青鬼のタンゴ
TTITLE14=杉並児童合唱団/トレロ　カモミロ
TTITLE15=山田美也子/勇気一つを友にして
TTITLE16=Kuko/メトロポリタン美術館（ミュージアム）
TTITLE17=水木一郎/サラマンドラ
TTITLE18=ピーカブー、吉田直子/ありがとう・さようなら
TTITLE19=三浦和人/遠い空
EXTD=
EXTT0=
EXTT1=
EXTT2=
EXTT3=
EXTT4=
EXTT5=
EXTT6=
EXTT7=
EXTT8=
EXTT9=
EXTT10=
EXTT11=
EXTT12=
EXTT13=
EXTT14=
EXTT15=
EXTT16=
EXTT17=
EXTT18=
EXTT19=
PLAYORDER=
